<svg xmlns="http://www.w3.org/2000/svg" width="358" height="266" viewBox="0 0 358 266">
  <g id="Online_Personal_Trainer-rafiki_1_" data-name="Online Personal Trainer-rafiki (1)" transform="translate(0 -55)">
    <g id="freepik--background-complete--inject-142" transform="translate(0 55)">
      <rect id="Retângulo_304" data-name="Retângulo 304" width="358" height="0.178" transform="translate(0 233.757)" fill="#ebebeb"/>
      <rect id="Retângulo_305" data-name="Retângulo 305" width="10.668" height="0.178" transform="translate(311.46 245.245)" fill="#ebebeb"/>
      <rect id="Retângulo_306" data-name="Retângulo 306" width="6.222" height="0.178" transform="translate(230.931 247.187)" fill="#ebebeb"/>
      <rect id="Retângulo_307" data-name="Retângulo 307" width="24.48" height="0.178" transform="translate(283.958 238.619)" fill="#ebebeb"/>
      <rect id="Retângulo_308" data-name="Retângulo 308" width="30.924" height="0.178" transform="translate(47.571 242.303)" fill="#ebebeb"/>
      <rect id="Retângulo_309" data-name="Retângulo 309" width="11.155" height="0.178" transform="translate(84.867 242.303)" fill="#ebebeb"/>
      <rect id="Retângulo_310" data-name="Retângulo 310" width="67.075" height="0.178" transform="translate(115.333 239.904)" fill="#ebebeb"/>
      <path id="Caminho_368" data-name="Caminho 368" d="M180.544,256.913H42.291a4.083,4.083,0,0,1-4.081-4.077V59.041A4.083,4.083,0,0,1,42.291,55H180.544a4.083,4.083,0,0,1,4.088,4.077v193.76A4.083,4.083,0,0,1,180.544,256.913ZM42.291,55.143a3.9,3.9,0,0,0-3.9,3.9v193.8a3.9,3.9,0,0,0,3.9,3.9H180.544a3.911,3.911,0,0,0,3.909-3.9V59.041a3.911,3.911,0,0,0-3.909-3.9Z" transform="translate(-10.852 -55)" fill="#ebebeb"/>
      <path id="Caminho_369" data-name="Caminho 369" d="M396.848,256.913H258.588a4.09,4.09,0,0,1-4.088-4.077V59.041A4.09,4.09,0,0,1,258.588,55h138.26a4.083,4.083,0,0,1,4.074,4.041v193.8A4.083,4.083,0,0,1,396.848,256.913ZM258.588,55.143a3.911,3.911,0,0,0-3.909,3.9v193.8a3.911,3.911,0,0,0,3.909,3.9h138.26a3.911,3.911,0,0,0,3.909-3.9V59.041a3.911,3.911,0,0,0-3.909-3.9Z" transform="translate(-72.278 -55)" fill="#ebebeb"/>
      <rect id="Retângulo_311" data-name="Retângulo 311" width="21.05" height="98.072" transform="translate(215.022 233.757) rotate(180)" fill="#e6e6e6"/>
      <path id="Caminho_370" data-name="Caminho 370" d="M274.9,377.855h-4V366.51h8.191Z" transform="translate(-76.936 -144.098)" fill="#f0f0f0"/>
      <rect id="Retângulo_312" data-name="Retângulo 312" width="21.05" height="98.072" transform="translate(320.84 233.757) rotate(180)" fill="#e6e6e6"/>
      <rect id="Retângulo_313" data-name="Retângulo 313" width="109.305" height="91.111" transform="translate(303.276 226.795) rotate(180)" fill="#f0f0f0"/>
      <path id="Caminho_371" data-name="Caminho 371" d="M374.51,271.959H278.731a4.083,4.083,0,0,1-4.081-4.07V252.86a4.083,4.083,0,0,1,4.081-4.07H374.51a4.083,4.083,0,0,1,4.081,4.07v15.029A4.083,4.083,0,0,1,374.51,271.959Zm-95.779-22.3a3.239,3.239,0,0,0-3.243,3.234v15.029a3.239,3.239,0,0,0,3.243,3.234H374.51a3.239,3.239,0,0,0,3.244-3.234V252.86a3.239,3.239,0,0,0-3.244-3.234Z" transform="translate(-78.001 -110.428)" fill="#e6e6e6"/>
      <path id="Caminho_372" data-name="Caminho 372" d="M321.612,333.439H278.731a4.083,4.083,0,0,1-4.081-4.07V287.73a4.075,4.075,0,0,1,4.081-4.07h42.881a4.075,4.075,0,0,1,4.081,4.07v41.639A4.075,4.075,0,0,1,321.612,333.439ZM278.731,284.5a3.239,3.239,0,0,0-3.243,3.234v41.639a3.239,3.239,0,0,0,3.243,3.234h42.881a3.246,3.246,0,0,0,3.251-3.234V287.73a3.246,3.246,0,0,0-3.251-3.234Z" transform="translate(-78.001 -120.402)" fill="#e6e6e6"/>
      <path id="Caminho_373" data-name="Caminho 373" d="M395.49,333.439H352.608a4.083,4.083,0,0,1-4.088-4.07V287.73a4.083,4.083,0,0,1,4.088-4.07H395.49a4.075,4.075,0,0,1,4.081,4.07v41.639A4.083,4.083,0,0,1,395.49,333.439ZM352.608,284.5a3.246,3.246,0,0,0-3.251,3.234v41.639a3.246,3.246,0,0,0,3.251,3.234H395.49a3.239,3.239,0,0,0,3.243-3.234V287.73a3.239,3.239,0,0,0-3.243-3.234Z" transform="translate(-98.98 -120.402)" fill="#e6e6e6"/>
      <path id="Caminho_374" data-name="Caminho 374" d="M358.254,297.825a3.963,3.963,0,1,1,3.974-3.955A3.968,3.968,0,0,1,358.254,297.825Zm0-7.083a3.127,3.127,0,1,0,3.136,3.127A3.132,3.132,0,0,0,358.254,290.742Z" transform="translate(-100.616 -122.186)" fill="#fafafa"/>
      <path id="Caminho_375" data-name="Caminho 375" d="M333.064,297.825a3.963,3.963,0,1,1,3.974-3.955A3.968,3.968,0,0,1,333.064,297.825Zm0-7.083a3.127,3.127,0,1,0,3.136,3.127A3.132,3.132,0,0,0,333.064,290.742Z" transform="translate(-93.462 -122.186)" fill="#fafafa"/>
      <path id="Caminho_376" data-name="Caminho 376" d="M416.319,377.855h4V366.51H412.13Z" transform="translate(-117.045 -144.098)" fill="#f0f0f0"/>
      <path id="Caminho_377" data-name="Caminho 377" d="M345,267.615a3.963,3.963,0,1,1,3.974-3.963A3.968,3.968,0,0,1,345,267.615Zm0-7.09a3.127,3.127,0,1,0,3.136,3.127A3.132,3.132,0,0,0,345,260.525Z" transform="translate(-96.853 -113.546)" fill="#fafafa"/>
      <rect id="Retângulo_314" data-name="Retângulo 314" width="105.367" height="41.282" transform="translate(303.799 72.04) rotate(180)" fill="#f0f0f0"/>
      <rect id="Retângulo_315" data-name="Retângulo 315" width="36.777" height="101.357" transform="translate(301.801 33.007) rotate(90)" fill="#e6e6e6"/>
      <rect id="Retângulo_316" data-name="Retângulo 316" width="2.005" height="40.361" transform="translate(269.366 71.576) rotate(180)" fill="#f0f0f0"/>
      <rect id="Retângulo_317" data-name="Retângulo 317" width="11.098" height="36.777" transform="translate(269.374 33.007)" fill="#e0e0e0"/>
      <rect id="Retângulo_318" data-name="Retângulo 318" width="11.098" height="36.777" transform="translate(234.948 33.007)" fill="#e0e0e0"/>
      <rect id="Retângulo_319" data-name="Retângulo 319" width="11.098" height="36.777" transform="translate(200.437 33.007)" fill="#e0e0e0"/>
      <rect id="Retângulo_320" data-name="Retângulo 320" width="2.005" height="40.361" transform="translate(234.941 71.576) rotate(180)" fill="#f0f0f0"/>
      <rect id="Retângulo_321" data-name="Retângulo 321" width="9.974" height="41.282" transform="translate(303.799 30.751)" fill="#e6e6e6"/>
      <path id="Caminho_378" data-name="Caminho 378" d="M384.109,140.175h18.473l-4.339-31.365H379.77Z" transform="translate(-107.855 -70.391)" fill="#ebebeb"/>
      <path id="Caminho_379" data-name="Caminho 379" d="M334.121,140.175H352.6l-3.208-31.365H330.92Z" transform="translate(-93.981 -70.391)" fill="#f5f5f5"/>
      <path id="Caminho_380" data-name="Caminho 380" d="M344.924,141.311h16.8l-7.074-28.531h-16.8Z" transform="translate(-95.949 -71.526)" fill="#e0e0e0"/>
      <rect id="Retângulo_322" data-name="Retângulo 322" width="18.473" height="33.893" transform="translate(301.794 69.784) rotate(180)" fill="#f5f5f5"/>
      <rect id="Retângulo_323" data-name="Retângulo 323" width="18.473" height="33.893" transform="translate(222.97 69.784) rotate(180)" fill="#f5f5f5"/>
      <path id="Caminho_381" data-name="Caminho 381" d="M301.9,141.311h14.32L311.24,112.78H296.92Z" transform="translate(-84.325 -71.526)" fill="#e0e0e0"/>
      <path id="Caminho_382" data-name="Caminho 382" d="M310.7,142.143h8.241V115.69H302.83Z" transform="translate(-86.004 -72.359)" fill="#f5f5f5"/>
      <rect id="Retângulo_324" data-name="Retângulo 324" width="4.21" height="33.893" transform="translate(208.7 69.784) rotate(180)" fill="#fafafa"/>
      <path id="Caminho_383" data-name="Caminho 383" d="M402.911,137.64h0a.558.558,0,0,0,.559-.557V109.367a.558.558,0,0,0-.559-.557h0a.551.551,0,0,0-.551.557v27.717a.55.55,0,0,0,.551.557Z" transform="translate(-114.27 -70.391)" fill="#f0f0f0"/>
      <path id="Caminho_384" data-name="Caminho 384" d="M399.633,205.36c1.955-9.325,3.315-24.461,2.263-29.516-.036-.178-.243-.336-.551-.443h0c-.909-.307-2.191,0-2.148.521.186,2.513.4,8.775-.759,19.592-.58,5.383-1.432,9.068-.838,9.846Z" transform="translate(-112.861 -89.402)" fill="#f0f0f0"/>
      <path id="Caminho_385" data-name="Caminho 385" d="M405.936,187.291c4.468-2.649,13.7-4.741,23.17-5.062,3.716-.121-11.213,3.291-17.363,6.7-4.769,2.649-10.11,7-11.893,9.382C400.9,193.4,401.468,189.918,405.936,187.291Z" transform="translate(-113.557 -91.389)" fill="#f0f0f0"/>
      <path id="Caminho_386" data-name="Caminho 386" d="M384.348,186.317c-4.625-2.963-15.294-5.241-26.836-5.5-4.532-.107,12.709,3.613,19.146,7.425,5.012,2.963,10.124,7.854,11.535,10.56C388.53,193.221,388.974,189.28,384.348,186.317Z" transform="translate(-101.321 -90.986)" fill="#f0f0f0"/>
      <path id="Caminho_387" data-name="Caminho 387" d="M406.449,175.349c3.53-2.206,11.313-4.02,19.561-4.391,3.243-.15-9.344,2.806-14.227,5.655-3.795,2.213-7.826,5.826-9.043,7.79C402.926,180.389,402.926,177.555,406.449,175.349Z" transform="translate(-114.378 -88.165)" fill="#f0f0f0"/>
      <path id="Caminho_388" data-name="Caminho 388" d="M388.734,175.874c-3.917-2.506-12.952-4.441-22.726-4.655-3.838-.086,10.74,3.063,16.21,6.29,4.232,2.506,8.592,6.661,9.773,8.939C392.271,181.722,392.643,178.388,388.734,175.874Z" transform="translate(-103.766 -88.241)" fill="#f0f0f0"/>
      <path id="Caminho_389" data-name="Caminho 389" d="M403.643,201.906c2.549-1.664,8.27-3.07,14.392-3.4,2.4-.128-6.852,2.142-10.382,4.284-2.749,1.671-5.628,4.384-6.444,5.847C401.194,205.669,401.1,203.57,403.643,201.906Z" transform="translate(-113.942 -96.045)" fill="#f0f0f0"/>
      <path id="Caminho_390" data-name="Caminho 390" d="M392.519,200.642c-2.212-1.656-7.69-3.049-13.79-3.384-2.4-.129,6.444,2.142,9.551,4.284,2.413,1.656,4.733,4.348,5.263,5.8C394.173,204.348,394.731,202.263,392.519,200.642Z" transform="translate(-107.443 -95.687)" fill="#f0f0f0"/>
      <path id="Caminho_391" data-name="Caminho 391" d="M395.408,234.943h0c4.869,0,8.9-1.285,9.179-7.4l.809-17.7H385.42l.809,17.7C386.508,233.687,390.532,234.943,395.408,234.943Z" transform="translate(-109.459 -99.287)" fill="#e6e6e6"/>
      <rect id="Retângulo_325" data-name="Retângulo 325" width="110.207" height="194.152" transform="translate(156.725 212.552) rotate(180)" fill="#e6e6e6"/>
      <path id="Caminho_392" data-name="Caminho 392" d="M48.06,75.51H177.212a1.1,1.1,0,0,1,1.1,1.064h0a1.1,1.1,0,0,1-1.1,1.092H48.06A1.1,1.1,0,0,1,47,76.574h0A1.1,1.1,0,0,1,48.06,75.51Z" transform="translate(-13.348 -60.866)" fill="#e6e6e6"/>
      <rect id="Retângulo_326" data-name="Retângulo 326" width="112.698" height="194.152" transform="translate(154.541 212.552) rotate(180)" fill="#f0f0f0"/>
      <rect id="Retângulo_327" data-name="Retângulo 327" width="181.094" height="99.603" transform="translate(147.997 24.925) rotate(90)" fill="#fafafa"/>
      <path id="Caminho_393" data-name="Caminho 393" d="M152.684,271.011,114.256,89.91H96.12l38.428,181.1Z" transform="translate(-27.298 -64.985)" fill="#fff"/>
      <path id="Caminho_394" data-name="Caminho 394" d="M126.295,271.011,87.874,89.91H80.8l38.428,181.1Z" transform="translate(-22.947 -64.985)" fill="#fff"/>
      <rect id="Retângulo_328" data-name="Retângulo 328" width="181.094" height="0.831" transform="translate(49.225 24.925) rotate(90)" fill="#e6e6e6"/>
      <g id="Grupo_31" data-name="Grupo 31" transform="translate(120.825 12.695)" opacity="0.6">
        <path id="Caminho_395" data-name="Caminho 395" d="M209.6,286.645h13.84L221.25,72.78H207.41Z" transform="translate(-179.729 -72.78)" fill="#f0f0f0"/>
        <path id="Caminho_396" data-name="Caminho 396" d="M202.078,286.645h10.776L210.663,72.78H199.88Z" transform="translate(-177.591 -72.78)" fill="#e6e6e6"/>
        <path id="Caminho_397" data-name="Caminho 397" d="M190.278,286.645h13.833L201.92,72.78H188.08Z" transform="translate(-174.24 -72.78)" fill="#f0f0f0"/>
        <path id="Caminho_398" data-name="Caminho 398" d="M182.748,286.645h10.783l-2.2-213.865H180.55Z" transform="translate(-172.101 -72.78)" fill="#e6e6e6"/>
        <path id="Caminho_399" data-name="Caminho 399" d="M170.948,286.645h13.84L182.59,72.78H168.75Z" transform="translate(-168.75 -72.78)" fill="#f0f0f0"/>
      </g>
      <g id="Grupo_32" data-name="Grupo 32" transform="translate(35.263 12.695)" opacity="0.6">
        <path id="Caminho_400" data-name="Caminho 400" d="M58.114,286.645H50.3L49.25,72.78h7.819Z" transform="translate(-49.25 -72.78)" fill="#f0f0f0"/>
        <path id="Caminho_401" data-name="Caminho 401" d="M63.056,286.645H56.963L55.91,72.78H62Z" transform="translate(-51.141 -72.78)" fill="#e6e6e6"/>
        <path id="Caminho_402" data-name="Caminho 402" d="M69.041,286.645H61.215L60.17,72.78h7.819Z" transform="translate(-52.351 -72.78)" fill="#f0f0f0"/>
        <path id="Caminho_403" data-name="Caminho 403" d="M73.979,286.645H67.885L66.84,72.78h6.086Z" transform="translate(-54.246 -72.78)" fill="#e6e6e6"/>
        <path id="Caminho_404" data-name="Caminho 404" d="M79.961,286.645H72.143L71.09,72.78h7.819Z" transform="translate(-55.453 -72.78)" fill="#f0f0f0"/>
      </g>
    </g>
    <g id="freepik--Shadow--inject-142" transform="translate(40.175 304.836)">
      <ellipse id="freepik--path--inject-142" cx="138.825" cy="8.082" rx="138.825" ry="8.082" fill="#f5f5f5"/>
    </g>
    <g id="freepik--character-1--inject-142" transform="translate(48.636 94.44)">
      <path id="Caminho_405" data-name="Caminho 405" d="M199.622,165.471h-6.279a.608.608,0,0,1-.6-.571l-.551-12.852a.55.55,0,0,1,.551-.578h6.272a.608.608,0,0,1,.6.578l.558,12.852a.543.543,0,0,1-.551.571Z" transform="translate(-103.218 -122.033)" fill="#3454d1"/>
      <path id="Caminho_406" data-name="Caminho 406" d="M159.994,286.693H82.881a7.473,7.473,0,0,1-7.382-7.054L68.7,121.621a6.734,6.734,0,0,1,6.773-7.061h77.113a7.48,7.48,0,0,1,7.382,7.061l6.8,158.018a6.734,6.734,0,0,1-6.773,7.054Z" transform="translate(-68.144 -111.476)" fill="#263238"/>
      <path id="Caminho_407" data-name="Caminho 407" d="M82.786,172.414H70.235a1.223,1.223,0,0,1-1.2-1.171l-1.1-25.7a1.094,1.094,0,0,1,1.1-1.15H81.584a1.216,1.216,0,0,1,1.2,1.149l1.11,25.7a1.1,1.1,0,0,1-1.1,1.171Z" transform="translate(-67.928 -120.008)" fill="#263238"/>
      <rect id="Retângulo_329" data-name="Retângulo 329" width="0.717" height="5.726" transform="matrix(0.999, -0.043, 0.043, 0.999, 100.586, 109.664)" fill="#3454d1"/>
      <rect id="Retângulo_330" data-name="Retângulo 330" width="0.718" height="19.185" transform="matrix(0.999, -0.043, 0.043, 0.999, 99.47, 83.72)" fill="#3454d1"/>
      <path id="Caminho_408" data-name="Caminho 408" d="M163.787,286.693H86.645a7.473,7.473,0,0,1-7.346-7.054L72.5,121.621a6.734,6.734,0,0,1,6.773-7.061h77.113a7.466,7.466,0,0,1,7.375,7.061l6.8,158.018a6.727,6.727,0,0,1-6.773,7.054Z" transform="translate(-69.223 -111.476)" fill="#3454d1"/>
      <path id="Caminho_409" data-name="Caminho 409" d="M164.89,285.014H87.748a4.67,4.67,0,0,1-4.568-4.37l-6.8-158.018a3.918,3.918,0,0,1,3.959-4.127H157.45a4.677,4.677,0,0,1,4.568,4.37l6.8,158.018a3.925,3.925,0,0,1-3.959,4.127ZM80.4,119.007a3.41,3.41,0,0,0-3.451,3.57l6.8,158.018a4.147,4.147,0,0,0,4,3.905H164.89a3.4,3.4,0,0,0,3.444-3.57l-6.8-158.018a4.148,4.148,0,0,0-4.053-3.884Z" transform="translate(-70.326 -112.602)" fill="#fff"/>
      <path id="Caminho_410" data-name="Caminho 410" d="M124.12,286.693,137.273,114.56h20.47L144.59,286.693Z" transform="translate(-83.886 -111.476)" fill="#fff" opacity="0.1"/>
      <path id="Caminho_411" data-name="Caminho 411" d="M102.52,286.693,115.673,114.56h10.368L112.895,286.693Z" transform="translate(-77.752 -111.476)" fill="#fff" opacity="0.1"/>
      <path id="Caminho_412" data-name="Caminho 412" d="M186.167,164.96a12.2,12.2,0,0,1,3.172,1.142,20.339,20.339,0,0,1,2.814,1.706l5.356,3.791c3.58,2.5,7.088,5.076,10.6,7.211.881.535,1.747,1.014,2.585,1.428.408.214.866.414,1.167.571a1.2,1.2,0,0,0,.236.228,1.7,1.7,0,0,0,1.217.057,7.558,7.558,0,0,0,2.069-.864c3.022-1.756,6.143-5.062,8.635-8.282l.115-.15a2.863,2.863,0,0,1,4.869,2.856c-.516,1.2-1.01,2.228-1.568,3.313a34.378,34.378,0,0,1-1.819,3.156,29.287,29.287,0,0,1-4.869,6.012,17.378,17.378,0,0,1-3.68,2.627,12.113,12.113,0,0,1-5.327,1.428,11.207,11.207,0,0,1-3.072-.343c-.766-.207-1.36-.386-2-.593-1.246-.414-2.427-.857-3.58-1.321a104.656,104.656,0,0,1-12.716-6.269c-2-1.157-3.96-2.37-5.9-3.62a19.831,19.831,0,0,1-2.742-2.142,13.317,13.317,0,0,1-2.3-2.663,6.157,6.157,0,0,1,6.358-9.282Z" transform="translate(-99.336 -125.863)" fill="#803e3c"/>
      <path id="Caminho_413" data-name="Caminho 413" d="M241.61,172.519l2.814-4.184a7.23,7.23,0,0,1,2.241-2.142l2.212-1.349a2.3,2.3,0,0,1,3.186.793l1.432,2.435A2.3,2.3,0,0,1,252.98,171l-2.563,2.142s-3.952,4.577-6.73,2.856Z" transform="translate(-117.254 -125.761)" fill="#7f3e3b"/>
      <path id="Caminho_464" data-name="Caminho 464" d="M7.83.008A7.814,7.814,0,1,1,.008,7.814,7.841,7.841,0,0,1,7.83.008Z" transform="translate(117.277 41.961) rotate(-22.5)" fill="#263238"/>
      <rect id="Retângulo_331" data-name="Retângulo 331" width="1.611" height="3.291" transform="translate(126.705 36.884)" fill="#263238"/>
      <rect id="Retângulo_332" data-name="Retângulo 332" width="1.606" height="3.301" rx="0.803" transform="translate(129.161 35.77) rotate(90)" fill="#263238"/>
      <path id="Caminho_465" data-name="Caminho 465" d="M6.777,0A6.794,6.794,0,1,1,0,6.794,6.8,6.8,0,0,1,6.777,0Z" transform="translate(119.328 51.219) rotate(-76.72)" fill="#fff"/>
      <path id="Caminho_414" data-name="Caminho 414" d="M246.713,173.39a1.617,1.617,0,1,1-2.241-.457A1.611,1.611,0,0,1,246.713,173.39Z" transform="translate(-117.86 -128.095)" fill="#263238"/>
      <path id="Caminho_415" data-name="Caminho 415" d="M241.37,167.94a19.583,19.583,0,0,0,2.27,4.712l1.2-.8a19.167,19.167,0,0,0-3.473-3.913Z" transform="translate(-117.185 -126.743)" fill="#263238"/>
      <path id="Caminho_416" data-name="Caminho 416" d="M137.633,164.022,155.7,160.93l15.358,2.513c3.222.528,5.606,2.856,5.821,6.84.9,16.971-1.869,24.789-2.348,51.6-1.124,0-34.368.564-34.368.564.816-14.558-6.7-32.793-8.291-50.992a6.936,6.936,0,0,1,5.764-7.433Z" transform="translate(-86.08 -124.738)" fill="#263238"/>
      <path id="Caminho_417" data-name="Caminho 417" d="M153.685,140c.337,4.684.508,10.838-.78,16.422-1.217,1.606,5.728,3.884,12.773,4.241,4.733-1.878,4.3-3.527,2.921-4.6-5.4-.878-4.131-6.126-3.329-9.9Z" transform="translate(-92.022 -118.752)" fill="#7f3e3b"/>
      <path id="Caminho_418" data-name="Caminho 418" d="M166.052,148.028l.508.271a24.927,24.927,0,0,0-.716,4.784c-2.442,0-4.976-.714-6.308-2.206a11.32,11.32,0,0,1-2.227-3.477Z" transform="translate(-93.312 -120.869)" opacity="0.2"/>
      <path id="Caminho_419" data-name="Caminho 419" d="M135.623,173.92c1.368.585,3.7,4.327,3.48,8.3a20.425,20.425,0,0,1-3.938,11.331c-1.1-4.919-2.105-9.924-2.735-14.958Z" transform="translate(-86.246 -128.454)" opacity="0.2"/>
      <path id="Caminho_420" data-name="Caminho 420" d="M151.63,127.818c1.031,6.426,1.31,10.21,4.9,13.173,5.406,4.448,13.1.643,14.012-5.955.816-5.947-1.01-15.422-7.59-17.307a8.955,8.955,0,0,0-11.32,10.089Z" transform="translate(-91.663 -112.282)" fill="#7f3e3b"/>
      <path id="Caminho_421" data-name="Caminho 421" d="M151.065,132.638c3.043-1.357,4.733-8.054.716-10.438,2.585-.236,7.16-1.913,7.26-3.184,3.437,1.142,6.272,1.492,6.9-.4a8.51,8.51,0,0,0-2.284-8.375c-.458,1.649-5.241,2.592-8.535,1.514-5.513-1.8-11.148-.293-9.308,4.284C139.2,118.415,143.733,127.04,151.065,132.638Z" transform="translate(-89.137 -110.24)" fill="#263238"/>
      <path id="Caminho_422" data-name="Caminho 422" d="M166.264,122.726c-4.862.457-16.869,3.506-20.721,5.847a.509.509,0,0,1-.551,0,4.845,4.845,0,0,1-1.811-3.113c0-1.114,19-6.511,23.27-6.711a.494.494,0,0,1,.5.328,5.54,5.54,0,0,1-.265,3.334A.5.5,0,0,1,166.264,122.726Z" transform="translate(-89.299 -112.674)" fill="#fff"/>
      <path id="Caminho_423" data-name="Caminho 423" d="M148,138.97a6.1,6.1,0,0,0,3.58,3.1c2.055.678,3.2-1.135,2.728-3.127-.422-1.785-2.012-4.284-4.124-4.105A2.787,2.787,0,0,0,148,138.97Z" transform="translate(-90.579 -117.272)" fill="#7f3e3b"/>
      <path id="Caminho_424" data-name="Caminho 424" d="M180.977,246.3s.358,47.687-1.611,67.442c-.236,2.349-.437,4.884-.609,7.568H161.824c.086-3.52.3-6.89.666-10.053-.286-10.617-2.427-21.2-4.454-30.58a159.311,159.311,0,0,1-3.186-33.935l14.413-.257Z" transform="translate(-92.607 -149.156)" fill="#fff"/>
      <path id="Caminho_425" data-name="Caminho 425" d="M164.054,274.012c-1.353-3.713-4.246.057-6.974,5.2.415,2.92.945,5.94,1.6,8.968a212.932,212.932,0,0,1,3.881,22.276C165.872,302.621,166.746,281.43,164.054,274.012Z" transform="translate(-93.247 -156.655)" opacity="0.2"/>
      <path id="Caminho_426" data-name="Caminho 426" d="M165.367,132.7c.05.521.372.914.716.878s.58-.493.53-1.014-.372-.921-.716-.885S165.317,132.172,165.367,132.7Z" transform="translate(-95.599 -116.371)" fill="#263238"/>
      <path id="Caminho_427" data-name="Caminho 427" d="M174.994,131.93c.05.521.372.921.716.885s.58-.493.53-1.021-.372-.921-.716-.885S174.916,131.4,174.994,131.93Z" transform="translate(-98.331 -116.151)" fill="#263238"/>
      <path id="Caminho_428" data-name="Caminho 428" d="M171.34,132.85a18.7,18.7,0,0,0,2.957,4.227,3.029,3.029,0,0,1-2.47.714Z" transform="translate(-97.297 -116.707)" fill="#630f0f"/>
      <path id="Caminho_429" data-name="Caminho 429" d="M167.845,141.422a4.3,4.3,0,0,1-3.143-1.428.157.157,0,0,1,0-.221.165.165,0,0,1,.222,0,4.138,4.138,0,0,0,3.58,1.264.154.154,0,1,1,.029.307A4.5,4.5,0,0,1,167.845,141.422Z" transform="translate(-95.399 -118.675)" fill="#263238"/>
      <path id="Caminho_430" data-name="Caminho 430" d="M163.092,129a.3.3,0,0,1-.251-.464A3.087,3.087,0,0,1,165.232,127a.308.308,0,0,1,.322.293.314.314,0,0,1-.3.321h0a2.514,2.514,0,0,0-1.883,1.242.315.315,0,0,1-.279.143Z" transform="translate(-94.87 -115.034)" fill="#263238"/>
      <path id="Caminho_431" data-name="Caminho 431" d="M176.053,127.5a.3.3,0,0,1-.265-.114,2.43,2.43,0,0,0-2.012-.985.315.315,0,0,1-.337-.286.322.322,0,0,1,.286-.336A3.089,3.089,0,0,1,176.275,127a.314.314,0,0,1-.05.436A.387.387,0,0,1,176.053,127.5Z" transform="translate(-97.893 -114.684)" fill="#263238"/>
      <path id="Caminho_432" data-name="Caminho 432" d="M162.595,246.56s-4.654,16.422-8.821,34.192c-2.785,11.852-5.878,24.068-7.876,31.908a61.587,61.587,0,0,1-2.678,8.725H126a70.85,70.85,0,0,1,3.508-10.874c4.547-29.416,4.668-57.382,9.036-63.951Z" transform="translate(-84.42 -149.23)" fill="#fff"/>
      <path id="Caminho_433" data-name="Caminho 433" d="M177.685,242.35l-34.626.793a.386.386,0,0,0-.379.393v2.256a.386.386,0,0,0,.394.393l34.447-.221a.393.393,0,0,0,.387-.364l.172-2.856a.386.386,0,0,0-.394-.393Z" transform="translate(-89.157 -148.026)" fill="#fff"/>
      <path id="Caminho_434" data-name="Caminho 434" d="M136.814,236.843l5.012-.371a7.336,7.336,0,0,1,3.086.436l2.427.9a2.29,2.29,0,0,1,1.332,3l-1.038,2.627A2.3,2.3,0,0,1,145,244.861l-3.251-.714s-6.05-.278-6.444-3.513Z" transform="translate(-87.064 -146.339)" fill="#7f3e3b"/>
      <path id="Caminho_435" data-name="Caminho 435" d="M137.758,174.3a16.527,16.527,0,0,1-2.864,6.526l-3.866,5.883-3.866,5.8c-1.26,1.913-2.506,3.87-3.473,5.669-.236.443-.451.864-.63,1.228l-.107.243-.05.107v.007c0-.228,0-.314-.043-.35s-.1.171-.064.478a7.372,7.372,0,0,0,.243,1.128,29.276,29.276,0,0,0,2.606,5.712c1.1,1.956,2.334,3.92,3.63,5.847s2.664,3.884,4.045,5.712v.057a2.86,2.86,0,0,1-4.16,3.827,100.428,100.428,0,0,1-10.5-10.631,38.866,38.866,0,0,1-4.6-6.7,17.441,17.441,0,0,1-.967-2.242,11.275,11.275,0,0,1-.63-3.049,8.694,8.694,0,0,1,.143-2.142l.057-.271v-.157l.079-.321c.05-.207.1-.443.158-.614.208-.771.437-1.428.659-2.142.924-2.592,1.9-4.876,2.928-7.14s2.148-4.477,3.243-6.654,2.327-4.284,3.58-6.383a21.367,21.367,0,0,1,2.041-3.027,12.952,12.952,0,0,1,2.764-2.585,6.22,6.22,0,0,1,9.623,6.112Z" transform="translate(-80.569 -126.494)" fill="#803e3c"/>
    </g>
    <g id="freepik--character-2--inject-142" transform="translate(158.727 161.165)">
      <path id="Caminho_436" data-name="Caminho 436" d="M333.952,269.392a82.136,82.136,0,0,1,6.816,7.3c1.053,1.307,2.1,2.649,3.057,4.112.487.714.952,1.5,1.432,2.335a13.592,13.592,0,0,1,1.174,2.856,7.006,7.006,0,0,1,.243,2.121,9.2,9.2,0,0,1-.315,1.828,16.208,16.208,0,0,1-1.053,2.7,35.079,35.079,0,0,1-2.656,4.455,60.352,60.352,0,0,1-6.322,7.668,1.674,1.674,0,0,1-2.656-1.992v-.043c1.568-2.72,3.143-5.5,4.525-8.254a40.723,40.723,0,0,0,1.8-4.084,12.381,12.381,0,0,0,.516-1.842l.05-.371v-.186c0,.064-.036-.086-.107-.264a9.458,9.458,0,0,0-.773-1.506c-.351-.571-.752-1.157-1.189-1.742-.874-1.164-1.84-2.342-2.864-3.491-2.019-2.3-4.217-4.605-6.372-6.769l-.043-.043a3.36,3.36,0,1,1,4.712-4.791Z" transform="translate(-251.938 -222.209)" fill="#ffb573"/>
      <path id="Caminho_437" data-name="Caminho 437" d="M334.3,315.24l-6.609,2.6,6.745,2.52s2.692-1.635,2.47-4.355Z" transform="translate(-251.791 -235.599)" fill="#ffb573"/>
      <path id="Caminho_438" data-name="Caminho 438" d="M327.326,322.964l2.5,1.171a1.7,1.7,0,0,0,1.94-.357l2.291-2.378-6.745-2.52-.816,1.892a1.69,1.69,0,0,0,.831,2.192Z" transform="translate(-251.413 -236.64)" fill="#ffb573"/>
      <path id="Caminho_439" data-name="Caminho 439" d="M315.574,247.35c-.766,3.9-1.525,11.031,1.2,13.623,0,0-2.306,6.376-10.862,7.561-4.833-3.984-1.267-7.561-1.267-7.561,4.353-1.035,4.239-4.284,3.48-7.275Z" transform="translate(-244.887 -216.181)" fill="#ffb573"/>
      <path id="Caminho_440" data-name="Caminho 440" d="M288.536,272.42c-.107,4.755.559,14.644,3.917,35.2h26.714c-.415-10.039-.9-16.607,3.158-35.2a4.578,4.578,0,0,0-3.874-5.519c-1.726-.236-3.759-.45-5.893-.557a85.861,85.861,0,0,0-12.129,0c-2.613.243-5.406.664-7.532,1.021A5.231,5.231,0,0,0,288.536,272.42Z" transform="translate(-240.668 -221.553)" fill="#263238"/>
      <path id="Caminho_441" data-name="Caminho 441" d="M302.018,234.2c-.179.493-.587.807-.917.714s-.444-.621-.265-1.114.587-.814.909-.714S302.2,233.732,302.018,234.2Z" transform="translate(-244.14 -212.095)" fill="#263238"/>
      <path id="Caminho_442" data-name="Caminho 442" d="M301.9,232.891l-1.074-.771S301.109,233.27,301.9,232.891Z" transform="translate(-244.162 -211.825)" fill="#263238"/>
      <path id="Caminho_443" data-name="Caminho 443" d="M299.972,236.44a14.029,14.029,0,0,1-2.592,2.856,2.273,2.273,0,0,0,1.761.764Z" transform="translate(-243.183 -213.061)" fill="#ed893e"/>
      <path id="Caminho_444" data-name="Caminho 444" d="M303.131,228.767a.285.285,0,0,1,0-.228.308.308,0,0,1,.408-.15,3.079,3.079,0,0,1,1.783,2.213.311.311,0,0,1-.616.086,2.436,2.436,0,0,0-1.432-1.735A.307.307,0,0,1,303.131,228.767Z" transform="translate(-244.809 -210.75)" fill="#263238"/>
      <path id="Caminho_445" data-name="Caminho 445" d="M318.86,235.385c-2.57,5.983-3.523,8.568-7.747,10.61-6.358,3.07-13.167-1.385-12.444-8.011.644-5.969,4.733-14.758,11.614-15.058a8.885,8.885,0,0,1,8.578,12.459Z" transform="translate(-243.534 -209.193)" fill="#ffb573"/>
      <path id="Caminho_446" data-name="Caminho 446" d="M306.2,228.559a4.868,4.868,0,0,1,1.8-6.426c-.53-1.592-2.205-1.064-2.427-2.5s-.616-5.6,4.4-4.013c.759-2.342,8.5-1.921,10.4-.35,7.3-4.184,2.986-13.5,12.824-11.224,6.981,1.621,6.315,8.775,12.616,12.787,10.69,6.811-1.575,12.073-5.255,22.983-2.807,8.318-17.241,1.15-17.807-6.326-2.241-2.021-1.36,6.947-9.265,6.7C307.335,240.019,302.423,233.329,306.2,228.559Z" transform="translate(-245.312 -203.695)" fill="#263238"/>
      <path id="Caminho_447" data-name="Caminho 447" d="M325.692,239.281a1.692,1.692,0,0,1-1.2-.493c-3.15-3.113-7.69-11.3-2.3-19.991a1.7,1.7,0,0,1,2.9,1.785c-5.284,8.568,1.511,15.515,1.8,15.807a1.7,1.7,0,0,1,0,2.406,1.735,1.735,0,0,1-1.21.486Z" transform="translate(-249.521 -207.784)" fill="#3454d1"/>
      <path id="Caminho_448" data-name="Caminho 448" d="M277.25,325.89s-54.216-19.656-50.435,0c3.723,19.377,6.874,54.662,6.874,54.662l5.456-.35s5.921-27.26,2.148-44.816c22.418,8.082,40.1,6.29,40.1,6.29Z" transform="translate(-223.089 -236.147)" fill="#ffb573"/>
      <path id="Caminho_449" data-name="Caminho 449" d="M234.925,395.9c-.759-6.133-2.277-22.248-3.115-27.131a55.406,55.406,0,0,1,12.594.828s-2.148,21-3.487,25.532a27.822,27.822,0,0,1-5.993.771Z" transform="translate(-224.561 -250.89)" fill="#3454d1"/>
      <path id="Caminho_450" data-name="Caminho 450" d="M232.221,404.365l5.821-.136a.408.408,0,0,1,.444.436l-.1,5.2a1.38,1.38,0,0,1-1.289,1.207c-2.606,0-3.58-.336-6.888-.25-2.033.057-4.21.328-6.974.25s-1.232-2.6,0-2.706c3.43-.307,5.592-1.928,7.819-3.57A2.152,2.152,0,0,1,232.221,404.365Z" transform="translate(-221.685 -261.052)" fill="#263238"/>
      <path id="Caminho_451" data-name="Caminho 451" d="M307.05,336.54s12.415,55.69,26.671,55.169c20.048-.714,47.714-9.21,47.714-9.21l-.866-4.7s-28.8-1.792-41.993,1.706c-4.783-21.484-11.95-42.967-11.95-42.967Z" transform="translate(-245.929 -241.692)" fill="#ffb573"/>
      <path id="Caminho_452" data-name="Caminho 452" d="M399.8,399.208c-5.986,1.564-21.8,5.2-26.578,6.683a54.867,54.867,0,0,1-.845-12.552s21.151-.657,25.84.05A27.071,27.071,0,0,1,399.8,399.208Z" transform="translate(-264.464 -257.858)" fill="#3454d1"/>
      <path id="Caminho_453" data-name="Caminho 453" d="M408.234,398.294l-1.382-5.633a.414.414,0,0,1,.337-.535l5.105-1.007a1.367,1.367,0,0,1,1.432.992c.58,2.535.222,4.534.9,7.754,1.232,5.847-.172,7.461-2.943,7.468s-2.714-.878-1.783-1.656c2.864-2.406,1.06-4.5-1.017-6.312a2.141,2.141,0,0,1-.652-1.071Z" transform="translate(-274.267 -257.301)" fill="#263238"/>
      <path id="Caminho_454" data-name="Caminho 454" d="M308.349,238.488a4.761,4.761,0,0,1-2.971,2.1c-1.64.357-2.356-1.128-1.826-2.613.48-1.342,1.912-3.141,3.516-2.856a2.14,2.14,0,0,1,1.282,3.37Z" transform="translate(-244.887 -212.674)" fill="#ffb573"/>
      <path id="Caminho_455" data-name="Caminho 455" d="M293.943,325.037l27.115-.871a.386.386,0,0,0,.358-.493l-.408-1.428a.4.4,0,0,0-.387-.286l-26.771.871a.393.393,0,0,0-.379.4l.05,1.428a.386.386,0,0,0,.422.378Z" transform="translate(-242.072 -237.521)" fill="#3454d1"/>
      <path id="Caminho_456" data-name="Caminho 456" d="M299.59,324.146s3.516,18.406,9.029,29.4c5.606-.243,22.912-2.627,24.186-5.312-2.814-14.722-8.392-22.069-10.511-24.575C310,323.846,299.59,324.146,299.59,324.146Z" transform="translate(-243.81 -238.008)" fill="#3454d1"/>
      <path id="Caminho_457" data-name="Caminho 457" d="M307,351.885c.587,1.742,1.224,3.463,1.9,5.112a18.545,18.545,0,0,0,3.831-7.3Z" transform="translate(-245.915 -245.456)" opacity="0.2"/>
      <path id="Caminho_458" data-name="Caminho 458" d="M294.429,347.424a118.584,118.584,0,0,1-17.793-1.15c-4.382-6.811-6.938-23.761-4.461-25.425,6.68,1.021,13.282,2.42,15.924,2.742,16.661-2.078,20.707,3.806,20.585,10.2A14.18,14.18,0,0,1,294.429,347.424Z" transform="translate(-235.749 -237.204)" fill="#3454d1"/>
      <path id="Caminho_459" data-name="Caminho 459" d="M329.6,267.29a11.584,11.584,0,0,1,7.446,4.37,24.129,24.129,0,0,1-3.917,9.889c-6.408-3.377-8.069-6.883-6.53-11.459C327.178,268.247,329.6,267.29,329.6,267.29Z" transform="translate(-251.328 -221.885)" fill="#263238"/>
      <path id="Caminho_460" data-name="Caminho 460" d="M289.275,274.982c-2.148,2.142-4.353,4.47-6.365,6.768-1.017,1.15-1.983,2.328-2.864,3.491-.437.585-.838,1.171-1.181,1.742a9,9,0,0,0-.78,1.506c-.072.178-.1.328-.107.264v.221l.05.364a12.387,12.387,0,0,0,.516,1.842,39.26,39.26,0,0,0,1.811,4.084c1.375,2.749,2.95,5.533,4.518,8.254v.043a1.674,1.674,0,0,1-2.664,1.992,61.582,61.582,0,0,1-6.322-7.668,35.053,35.053,0,0,1-2.649-4.455,16.206,16.206,0,0,1-1.06-2.7,8.758,8.758,0,0,1-.308-1.821,7.048,7.048,0,0,1,.258-2.106,13.594,13.594,0,0,1,1.174-2.856c.444-.835.916-1.6,1.4-2.335a50.639,50.639,0,0,1,3.064-4.105,80.235,80.235,0,0,1,6.816-7.3,3.36,3.36,0,0,1,4.711,4.784Z" transform="translate(-235.937 -222.473)" fill="#ffb573"/>
      <path id="Caminho_461" data-name="Caminho 461" d="M285.7,316.742l1.826,6.847,3.294-6.383s-1.325-2.856-4.053-2.956Z" transform="translate(-239.866 -235.316)" fill="#ffb573"/>
      <path id="Caminho_462" data-name="Caminho 462" d="M292.306,325.26l1.432-2.335a1.681,1.681,0,0,0-.136-1.963l-2.1-2.542L288.21,324.8l1.79,1.028A1.685,1.685,0,0,0,292.306,325.26Z" transform="translate(-240.578 -236.509)" fill="#ffb573"/>
      <path id="Caminho_463" data-name="Caminho 463" d="M291.648,268c-7.045,1.1-8.3,5.483-8.3,5.483a26.37,26.37,0,0,0,3.179,8.618c8.5-1.428,9.666-6.726,8.127-11.3C294.033,268.942,291.648,268,291.648,268Z" transform="translate(-239.198 -222.088)" fill="#263238"/>
    </g>
  </g>
</svg>
